<?xml version="1.0" encoding="UTF-8"?>
<svg version="1.1" xmlns="http://www.w3.org/2000/svg" width="128" height="128">
<path d="M0 0 C1.7634375 0.5878125 1.7634375 0.5878125 3.5625 1.1875 C4.5625 4.1875 4.5625 4.1875 3.125 7.375 C2.3515625 8.7671875 2.3515625 8.7671875 1.5625 10.1875 C2.8 10.331875 4.0375 10.47625 5.3125 10.625 C11.27145908 11.89447618 15.41130204 15.48188221 20.05859375 19.19140625 C22.37655903 21.18113461 22.37655903 21.18113461 24.5625 22.1875 C25.09875 21.115 25.635 20.0425 26.1875 18.9375 C28.30144204 15.16586241 30.92233728 13.50396718 34.5625 11.1875 C34.5625 10.1975 34.5625 9.2075 34.5625 8.1875 C32.5825 7.8575 30.6025 7.5275 28.5625 7.1875 C28.2325 8.1775 27.9025 9.1675 27.5625 10.1875 C25.9125 9.5275 24.2625 8.8675 22.5625 8.1875 C23.48510644 5.08418743 24.26747271 3.44038053 26.75 1.3125 C30.62089742 -0.23585897 32.58254161 -0.06932897 36.5625 1.1875 C39.17879219 3.1905108 41.03134911 5.26386849 42.5625 8.1875 C42.62221489 11.7703935 42.52553854 13.95563782 40.2890625 16.81640625 C38.173339 18.49653962 36.5174341 18.8771501 33.875 19.375 C33.06675781 19.53355469 32.25851563 19.69210938 31.42578125 19.85546875 C30.81089844 19.96503906 30.19601563 20.07460938 29.5625 20.1875 C29.418125 21.30125 29.27375 22.415 29.125 23.5625 C28.5625 27.1875 28.5625 27.1875 27.5625 29.1875 C30.03001942 42.69236675 35.78098029 50.60220926 45.8828125 59.63671875 C50.38702061 63.77526326 53.10066263 67.5004462 54.1640625 73.6875 C54.23514527 84.30252754 54.23514527 84.30252754 50.8125 88.4375 C47.85038507 91.33977423 44.99876087 93.12221541 40.8125 93.3125 C40.07 93.27125 39.3275 93.23 38.5625 93.1875 C38.5625 93.8475 38.5625 94.5075 38.5625 95.1875 C7.5425 95.1875 -23.4775 95.1875 -55.4375 95.1875 C-55.1075 91.8875 -54.7775 88.5875 -54.4375 85.1875 C-56.4175 85.1565625 -56.4175 85.1565625 -58.4375 85.125 C-64.22490223 84.48601237 -67.782877 81.59454539 -71.4375 77.1875 C-74.18073117 72.69286953 -74.82412473 69.36504788 -74.75 64.125 C-74.74613281 62.93777344 -74.74226563 61.75054687 -74.73828125 60.52734375 C-74.03654404 52.73532669 -69.66476851 47.8314189 -63.90185547 42.86376953 C-58.12495753 38.10012778 -52.1794284 33.63610384 -45.9375 29.5 C-41.95058281 26.79435962 -39.56570146 23.9073996 -36.8515625 19.97265625 C-34.54345694 17.05883238 -31.77841823 15.69024234 -28.4375 14.1875 C-27.63054688 13.81625 -26.82359375 13.445 -25.9921875 13.0625 C-23.81662167 12.0804264 -21.63318836 11.12353041 -19.4375 10.1875 C-20.7575 9.8575 -22.0775 9.5275 -23.4375 9.1875 C-22.09065993 5.14697978 -19.98902523 4.41590799 -16.4375 2.1875 C-15.81875 1.61 -15.2 1.0325 -14.5625 0.4375 C-10.15308537 -2.15627331 -4.79804721 -1.01646243 0 0 Z " fill="#DCAA42" transform="translate(74.4375,16.8125)"/>
<path d="M0 0 C3.57653022 0.03153907 5.04342188 0.68104884 7.5625 3.1875 C11.57295953 7.14212947 16.12840451 8.11656464 21.484375 9.48046875 C24.3400291 10.4259218 25.68912235 10.97167896 27.375 13.4375 C27.15089301 17.62083056 26.7135104 19.92973439 24.375 23.4375 C24.3138042 26.28381883 24.3138042 26.28381883 24.6875 29.375 C24.83638672 30.93541016 24.83638672 30.93541016 24.98828125 32.52734375 C25.30061 35.31726165 25.30061 35.31726165 25.90625 37.51171875 C26.46821879 39.82047387 26.54400294 41.93747719 26.5625 44.3125 C26.57667969 45.13492188 26.59085937 45.95734375 26.60546875 46.8046875 C26.375 49.4375 26.375 49.4375 24.375 55.4375 C7.545 55.4375 -9.285 55.4375 -26.625 55.4375 C-26.955 54.1175 -27.285 52.7975 -27.625 51.4375 C-29.275 51.4375 -30.925 51.4375 -32.625 51.4375 C-32.13 48.4675 -32.13 48.4675 -31.625 45.4375 C-30.635 45.4375 -29.645 45.4375 -28.625 45.4375 C-28.625 44.7775 -28.625 44.1175 -28.625 43.4375 C-29.945 43.4375 -31.265 43.4375 -32.625 43.4375 C-32.70631463 42.00094146 -32.76433559 40.5630517 -32.8125 39.125 C-32.84730469 38.32449219 -32.88210937 37.52398437 -32.91796875 36.69921875 C-32.55514959 33.89825483 -31.61238101 33.34376342 -29.625 31.4375 C-29.05482192 29.39649762 -29.05482192 29.39649762 -28.9375 27.25 C-28.7828125 25.3628125 -28.7828125 25.3628125 -28.625 23.4375 C-30.605 23.4375 -32.585 23.4375 -34.625 23.4375 C-35.615 25.4175 -36.605 27.3975 -37.625 29.4375 C-38.945 29.4375 -40.265 29.4375 -41.625 29.4375 C-41.52766164 26.51734926 -41.43323301 24.205566 -40.625 21.4375 C-37.44388643 18.47832459 -35.58600416 17.50868549 -31.25 17.1875 C-30.38375 17.27 -29.5175 17.3525 -28.625 17.4375 C-28.5425 16.32375 -28.46 15.21 -28.375 14.0625 C-27.625 10.4375 -27.625 10.4375 -25.90625 9.26171875 C-23.37751556 8.34808353 -21.03999883 7.97144985 -18.375 7.625 C-11.28986999 6.44731083 -6.55656819 0.79130995 0 0 Z " fill="#D4CAB4" transform="translate(67.625,56.5625)"/>
<path d="M0 0 C0 0.66 0 1.32 0 2 C-1.051875 2.391875 -2.10375 2.78375 -3.1875 3.1875 C-6.92808883 4.77762885 -9.27567942 6.9643285 -12 10 C-12.66 10.66 -13.32 11.32 -14 12 C-14.6425235 14.06874034 -14.6425235 14.06874034 -15 16 C-14.01 16 -13.02 16 -12 16 C-11.94392578 17.04800781 -11.94392578 17.04800781 -11.88671875 18.1171875 C-11.82097656 19.02726562 -11.75523438 19.93734375 -11.6875 20.875 C-11.62949219 21.77992187 -11.57148437 22.68484375 -11.51171875 23.6171875 C-11.2117961 26.36221601 -11.2117961 26.36221601 -8 28 C-2.86832001 28.69281708 2.26625311 28.98275508 6.6875 26 C7.450625 25.34 8.21375 24.68 9 24 C7.90537324 27.1744176 7.01822665 27.98914157 4.0625 29.75 C1 31 1 31 -2 31 C-2 31.66 -2 32.32 -2 33 C0.64 32.67 3.28 32.34 6 32 C6 31.34 6 30.68 6 30 C8.31 29.34 10.62 28.68 13 28 C6.89475465 35.08208461 -1.2058042 35.77256709 -10 37 C-10.33 39.31 -10.66 41.62 -11 44 C-12.258125 44.28875 -13.51625 44.5775 -14.8125 44.875 C-17.8539399 45.57303539 -19.30669878 46.20446585 -22 48 C-22.78988145 49.95385067 -22.78988145 49.95385067 -23.1875 52.125 C-23.455625 53.40375 -23.72375 54.6825 -24 56 C-22.02811774 55.6908826 -22.02811774 55.6908826 -20 55 C-18.76709799 52.54295238 -18.76709799 52.54295238 -18 50 C-17 49 -17 49 -13.9375 48.9375 C-12.968125 48.958125 -11.99875 48.97875 -11 49 C-9.84296481 53.04962316 -10.07507115 55.25145434 -12 59 C-12.66 59.66 -13.32 60.32 -14 61 C-14.46006346 63.20250992 -14.46006346 63.20250992 -14.625 65.625 C-14.69976562 66.44226563 -14.77453125 67.25953125 -14.8515625 68.1015625 C-14.90054688 68.72804688 -14.94953125 69.35453125 -15 70 C-13.68 70 -12.36 70 -11 70 C-11 70.66 -11 71.32 -11 72 C-11.99 72 -12.98 72 -14 72 C-14.33 73.98 -14.66 75.96 -15 78 C-13.35 78 -11.7 78 -10 78 C-9.67 79.32 -9.34 80.64 -9 82 C-16.26 82 -23.52 82 -31 82 C-30.67 78.7 -30.34 75.4 -30 72 C-31.98 71.9690625 -31.98 71.9690625 -34 71.9375 C-39.78740223 71.29851237 -43.345377 68.40704539 -47 64 C-49.74323117 59.50536953 -50.38662473 56.17754788 -50.3125 50.9375 C-50.30863281 49.75027344 -50.30476563 48.56304687 -50.30078125 47.33984375 C-49.59904404 39.54782669 -45.22726851 34.6439189 -39.46435547 29.67626953 C-33.68745753 24.91262778 -27.7419284 20.44860384 -21.5 16.3125 C-17.52105519 13.61226992 -15.12628703 10.74387923 -12.44140625 6.796875 C-10.08958606 3.86506664 -7.36167921 2.61619193 -4 1 C-2 0 -2 0 0 0 Z " fill="#DBAE49" transform="translate(50,30)"/>
<path d="M0 0 C2.23990177 2.23990177 2.36523745 3.21240458 3.1875 6.1875 C5.64878801 12.72559325 10.49982609 16.90528278 15.51635742 21.55737305 C20.5996914 26.32033685 24.37970379 30.39100389 25.6015625 37.5 C25.67264527 48.11502754 25.67264527 48.11502754 22.25 52.25 C19.28788507 55.15227423 16.43626087 56.93471541 12.25 57.125 C11.5075 57.08375 10.765 57.0425 10 57 C10 57.66 10 58.32 10 59 C3.73 59 -2.54 59 -9 59 C-8.9375 50.5 -8.9375 50.5 -8.90991211 47.87304688 C-8.89637071 44.01855294 -9.04358926 40.34486174 -9.62890625 36.53125 C-9.75136719 35.3659375 -9.87382813 34.200625 -10 33 C-9.34 32.34 -8.68 31.68 -8 31 C-2.61546673 36.2349629 2.67065683 41.68763156 5 49 C4.25 52 4.25 52 3 54 C4.65 54.33 6.3 54.66 8 55 C7.94199219 54.03578125 7.88398437 53.0715625 7.82421875 52.078125 C7.77910156 50.81484375 7.73398438 49.5515625 7.6875 48.25 C7.62949219 46.99703125 7.57148437 45.7440625 7.51171875 44.453125 C8 41 8 41 10.39453125 38.734375 C11.25433594 38.16203125 12.11414063 37.5896875 13 37 C15.05925681 33.91111478 15.2390374 33.29064073 15.125 29.8125 C15.08375 28.554375 15.0425 27.29625 15 26 C10.86763795 23.99643052 7.57438521 23.5098873 3 24 C0.2094183 25.89816542 0.2094183 25.89816542 -2 28 C-2.66 28 -3.32 28 -4 28 C-4.66 29.32 -5.32 30.64 -6 32 C-6.99 31.34 -7.98 30.68 -9 30 C-8.37310415 23.35490394 -8.37310415 23.35490394 -6.55859375 21.62890625 C-4.39887516 19.37175674 -4.07334063 17.27358473 -3.375 14.25 C-3.1275 13.18652344 -2.88 12.12304688 -2.625 11.02734375 C-2.12814018 8.62067901 -1.69887895 6.24665275 -1.375 3.8125 C-1 1 -1 1 0 0 Z " fill="#D19F3B" transform="translate(103,53)"/>
<path d="M0 0 C1.33332095 2.6666419 0.67102033 4.16680303 0 7 C1.95894361 6.88693303 1.95894361 6.88693303 4 6 C5.23290201 3.54295238 5.23290201 3.54295238 6 1 C7 0 7 0 10.0625 -0.0625 C11.5165625 -0.0315625 11.5165625 -0.0315625 13 0 C14.15703519 4.04962316 13.92492885 6.25145434 12 10 C11.34 10.66 10.68 11.32 10 12 C9.53993654 14.20250992 9.53993654 14.20250992 9.375 16.625 C9.30023438 17.44226563 9.22546875 18.25953125 9.1484375 19.1015625 C9.09945312 19.72804688 9.05046875 20.35453125 9 21 C10.32 21 11.64 21 13 21 C13 21.66 13 22.32 13 23 C12.01 23 11.02 23 10 23 C9.67 24.98 9.34 26.96 9 29 C10.65 29 12.3 29 14 29 C14.495 30.98 14.495 30.98 15 33 C7.74 33 0.48 33 -7 33 C-6.67 29.7 -6.34 26.4 -6 23 C-7.98 22.9690625 -7.98 22.9690625 -10 22.9375 C-15.8660803 22.34252514 -19.04819676 19.12408894 -23 15 C-21.87952556 10.64259941 -19.84331593 8.38598161 -16.2109375 5.94140625 C-11.98962267 4.14399128 -7.48912194 4.47887473 -3 5 C-2.34 5.33 -1.68 5.66 -1 6 C-1.020625 5.195625 -1.04125 4.39125 -1.0625 3.5625 C-1 1 -1 1 0 0 Z " fill="#B58A30" transform="translate(26,79)"/>
<path d="M0 0 C2.1305905 0.98920273 3.92306586 1.93556982 5.73046875 3.44921875 C9.44914302 5.99020616 13.69668928 6.76413783 18.00390625 7.9375 C20.89639465 8.9632586 22.1995303 9.57512498 24 12 C24.33 12.99 24.66 13.98 25 15 C25.66 14.67 26.32 14.34 27 14 C25.79618552 16.49361571 24.54571278 18.68143083 23 21 C22.61500109 22.65549531 22.27206865 24.3222433 22 26 C26.09335584 26.45317644 26.09335584 26.45317644 28.5625 23.625 C29.366875 22.75875 30.17125 21.8925 31 21 C34.72579089 18.51613941 36.58711402 18.6195788 41 19 C43.875 20 43.875 20 46 22 C47.06505753 24.73364767 47.40365181 27.08915875 47 30 C44.6875 32.875 44.6875 32.875 42 35 C39.14206684 37.85793316 39.59200059 40.14665584 39.375 44.125 C39.30023438 45.40632813 39.22546875 46.68765625 39.1484375 48.0078125 C39.09945312 48.99523437 39.05046875 49.98265625 39 51 C37.35 50.67 35.7 50.34 34 50 C34.28875 49.21625 34.5775 48.4325 34.875 47.625 C35.06577178 42.09261834 32.17235122 38.38841918 29 34 C28.43796875 33.44699219 27.8759375 32.89398438 27.296875 32.32421875 C26 31 26 31 26 29 C24.68 29 23.36 29 22 29 C22.2475 30.485 22.2475 30.485 22.5 32 C23.06337994 36.45874977 23.11298053 40.88773004 23.125 45.375 C23.12951172 46.08914062 23.13402344 46.80328125 23.13867188 47.5390625 C23.1237479 52.7525042 23.1237479 52.7525042 22 55 C21.34 54.67 20.68 54.34 20 54 C20.165 53.38125 20.33 52.7625 20.5 52.125 C21.65238594 44.92258786 20.99794156 38.33765942 19.45703125 31.25390625 C18.30188037 25.55713653 19.01509701 22.85046736 22 18 C22.58402133 15.41417872 22.58402133 15.41417872 22 13 C18.86431156 10.03767895 15.68437721 9.23107354 11.5625 8.1875 C5.79718737 6.52268501 3.12736054 5.09643939 0 0 Z " fill="#D1A23E" transform="translate(72,57)"/>
<path d="M0 0 C1.175625 0.391875 2.35125 0.78375 3.5625 1.1875 C4.5625 4.1875 4.5625 4.1875 3.890625 6.1953125 C3.53484375 6.89398438 3.1790625 7.59265625 2.8125 8.3125 C2.46703125 9.01632813 2.1215625 9.72015625 1.765625 10.4453125 C0.5625 12.1875 0.5625 12.1875 -2.4375 13.1875 C-4.99789231 16.74360043 -5.0140018 20.95251798 -5.4375 25.1875 C-4.4475 25.1875 -3.4575 25.1875 -2.4375 25.1875 C-2.4375 26.8375 -2.4375 28.4875 -2.4375 30.1875 C-4.7475 30.5175 -7.0575 30.8475 -9.4375 31.1875 C-10.58732602 27.09746141 -10.54844256 23.15572949 -10.5 18.9375 C-10.49548828 18.19242188 -10.49097656 17.44734375 -10.48632812 16.6796875 C-10.47459246 14.8489236 -10.4566585 13.01820127 -10.4375 11.1875 C-11.11296875 11.34347656 -11.7884375 11.49945313 -12.484375 11.66015625 C-13.82242188 11.95212891 -13.82242188 11.95212891 -15.1875 12.25 C-16.06921875 12.44722656 -16.9509375 12.64445312 -17.859375 12.84765625 C-20.42429028 13.18575872 -22.00841639 12.99908635 -24.4375 12.1875 C-22.7875 11.5275 -21.1375 10.8675 -19.4375 10.1875 C-20.7575 9.8575 -22.0775 9.5275 -23.4375 9.1875 C-22.09065993 5.14697978 -19.98902523 4.41590799 -16.4375 2.1875 C-15.81875 1.61 -15.2 1.0325 -14.5625 0.4375 C-10.15308537 -2.15627331 -4.79804721 -1.01646243 0 0 Z " fill="#B09550" transform="translate(74.4375,16.8125)"/>
<path d="M0 0 C2.1875 0.3125 2.1875 0.3125 4 1 C3.125 4.875 3.125 4.875 2 6 C1.76636119 7.84891946 1.58696365 9.70488031 1.4375 11.5625 C1.35371094 12.57441406 1.26992188 13.58632812 1.18359375 14.62890625 C1.09271484 15.80259766 1.09271484 15.80259766 1 17 C2.32 17 3.64 17 5 17 C5 17.66 5 18.32 5 19 C4.01 19 3.02 19 2 19 C1.67 20.98 1.34 22.96 1 25 C2.65 25 4.3 25 6 25 C6.33 26.32 6.66 27.64 7 29 C-0.26 29 -7.52 29 -15 29 C-12.7755102 17.87755102 -12.7755102 17.87755102 -10 14 C-9.14921875 12.61941406 -9.14921875 12.61941406 -8.28125 11.2109375 C-7.6934375 10.27507812 -7.105625 9.33921875 -6.5 8.375 C-5.61828125 6.96347656 -5.61828125 6.96347656 -4.71875 5.5234375 C-3.26333111 3.38661795 -2.0070275 1.6199974 0 0 Z " fill="#DCAF48" transform="translate(34,83)"/>
<path d="M0 0 C0 0.66 0 1.32 0 2 C-1.051875 2.391875 -2.10375 2.78375 -3.1875 3.1875 C-6.92808883 4.77762885 -9.27567942 6.9643285 -12 10 C-12.66 10.66 -13.32 11.32 -14 12 C-14.6425235 14.06874034 -14.6425235 14.06874034 -15 16 C-14.01 16 -13.02 16 -12 16 C-11.96261719 16.69867188 -11.92523438 17.39734375 -11.88671875 18.1171875 C-11.82097656 19.02726562 -11.75523438 19.93734375 -11.6875 20.875 C-11.60048828 22.23238281 -11.60048828 22.23238281 -11.51171875 23.6171875 C-11.2117961 26.36221601 -11.2117961 26.36221601 -8 28 C-2.86832001 28.69281708 2.26625311 28.98275508 6.6875 26 C7.450625 25.34 8.21375 24.68 9 24 C7.90537324 27.1744176 7.01822665 27.98914157 4.0625 29.75 C1 31 1 31 -2 31 C-2 31.66 -2 32.32 -2 33 C0.64 32.67 3.28 32.34 6 32 C6 31.34 6 30.68 6 30 C8.31 29.34 10.62 28.68 13 28 C6.89475465 35.08208461 -1.2058042 35.77256709 -10 37 C-10.33 39.31 -10.66 41.62 -11 44 C-13.97 44.66 -16.94 45.32 -20 46 C-19.19800336 40.18321976 -17.48838644 34.76964956 -15.72851562 29.18945312 C-14.55558287 25.34920973 -13.68587688 22.06749169 -14 18 C-14.99 18.66 -15.98 19.32 -17 20 C-17 18.68 -17 17.36 -17 16 C-18.32 16.33 -19.64 16.66 -21 17 C-20.61328125 16.55269531 -20.2265625 16.10539062 -19.828125 15.64453125 C-19.30734375 15.03996094 -18.7865625 14.43539062 -18.25 13.8125 C-17.42048828 12.8534375 -17.42048828 12.8534375 -16.57421875 11.875 C-15.34018935 10.40518831 -14.18482777 8.86927723 -13.0625 7.3125 C-9.95976715 3.83367832 -4.79602384 0 0 0 Z " fill="#D1A84D" transform="translate(50,30)"/>
<path d="M0 0 C6.63870372 2.83289512 10.37581528 9.86899168 13.38671875 16.17578125 C14.24367176 18.72480709 13.8826832 20.49906426 13 23 C13 23.66 13 24.32 13 25 C14.32 25 15.64 25 17 25 C17 25.99 17 26.98 17 28 C11.39 28 5.78 28 0 28 C0.01740234 26.19015625 0.01740234 26.19015625 0.03515625 24.34375 C0.04454335 22.72916823 0.05364256 21.11458476 0.0625 19.5 C0.07087891 18.70851563 0.07925781 17.91703125 0.08789062 17.1015625 C0.10394288 13.18481303 -0.01974632 9.4131497 -0.56640625 5.53125 C-1 2 -1 2 0 0 Z " fill="#DEA73C" transform="translate(94,84)"/>
<path d="M0 0 C2.61629219 2.0030108 4.46884911 4.07636849 6 7 C6.05971489 10.5828935 5.96303854 12.76813782 3.7265625 15.62890625 C1.610839 17.30903962 -0.0450659 17.6896501 -2.6875 18.1875 C-3.49574219 18.34605469 -4.30398437 18.50460938 -5.13671875 18.66796875 C-6.05904297 18.83232422 -6.05904297 18.83232422 -7 19 C-7.144375 20.11375 -7.28875 21.2275 -7.4375 22.375 C-8 26 -8 26 -9 28 C-8.71887936 30.00800456 -8.38932033 32.01014051 -8 34 C-10.35953094 31.64046906 -10.49141413 30.22104383 -11 27 C-11.99 26.67 -12.98 26.34 -14 26 C-15.0625 23.625 -15.0625 23.625 -16 21 C-16.66 20.01 -17.32 19.02 -18 18 C-16 19 -14 20 -12 21 C-11.46375 19.9275 -10.9275 18.855 -10.375 17.75 C-8.26105796 13.97836241 -5.64016272 12.31646718 -2 10 C-2 9.01 -2 8.02 -2 7 C-4.97 6.505 -4.97 6.505 -8 6 C-8.33 6.99 -8.66 7.98 -9 9 C-11.475 8.01 -11.475 8.01 -14 7 C-13.07739356 3.89668743 -12.29502729 2.25288053 -9.8125 0.125 C-5.94160258 -1.42335897 -3.97995839 -1.25682897 0 0 Z " fill="#80B6C2" transform="translate(111,18)"/>
<path d="M0 0 C2.48050929 1.16432069 4.09425952 2.09425952 6 4 C6.82060282 10.91650945 6.82060282 10.91650945 4.6953125 13.72265625 C3.0625 15.25 3.0625 15.25 1.41015625 16.578125 C-0.30070534 18.30320427 -0.60116389 19.63727468 -1 22 C-2.66611905 22.042721 -4.33382885 22.04063832 -6 22 C-6.33 21.67 -6.66 21.34 -7 21 C-6.69035576 15.63283315 -5.53926258 12.9816704 -2 9 C-1.67 8.01 -1.34 7.02 -1 6 C-2.98 6.33 -4.96 6.66 -7 7 C-7.33 8.32 -7.66 9.64 -8 11 C-9.98 11.33 -11.96 11.66 -14 12 C-15.27514492 8.17456525 -14.52740413 6.66576992 -13 3 C-9.63626062 -1.39556127 -5.0860475 -0.62460232 0 0 Z " fill="#7CB3C4" transform="translate(20,21)"/>
<path d="M0 0 C2.71484375 0.171875 2.71484375 0.171875 5.9375 0.75 C6.99839844 0.93046875 8.05929688 1.1109375 9.15234375 1.296875 C12 2 12 2 15 4 C14.93213562 7.39321876 14.76017941 10.0266258 12.62109375 12.765625 C8.56642028 16.50281844 5.48311866 17.77619924 0 18 C0 18.66 0 19.32 0 20 C-0.66 20 -1.32 20 -2 20 C-2 19.01 -2 18.02 -2 17 C-3.32 17 -4.64 17 -6 17 C-5.67 16.34 -5.34 15.68 -5 15 C-4.01 15.33 -3.02 15.66 -2 16 C-2.02320312 15.01257813 -2.04640625 14.02515625 -2.0703125 13.0078125 C-2.08835937 11.72648437 -2.10640625 10.44515625 -2.125 9.125 C-2.14820312 7.84882812 -2.17140625 6.57265625 -2.1953125 5.2578125 C-2 2 -2 2 0 0 Z " fill="#A77827" transform="translate(113,92)"/>
<path d="M0 0 C2.62397304 1.77361141 3.34988467 3.12560556 5 6 C5.76472119 10.078513 5.23831822 11.59485902 3.125 15.1875 C2.42375 16.115625 1.7225 17.04375 1 18 C-0.9451 20.91765 -1.45276317 22.62537285 -2 26 C-3.65 26 -5.3 26 -7 26 C-7.08131463 24.56344146 -7.13933559 23.1255517 -7.1875 21.6875 C-7.22230469 20.88699219 -7.25710937 20.08648437 -7.29296875 19.26171875 C-6.93014959 16.46075483 -5.98738101 15.90626342 -4 14 C-3.42982192 11.95899762 -3.42982192 11.95899762 -3.3125 9.8125 C-3.1578125 7.9253125 -3.1578125 7.9253125 -3 6 C-4.98 6 -6.96 6 -9 6 C-9.99 7.98 -10.98 9.96 -12 12 C-13.32 12 -14.64 12 -16 12 C-15.75862069 4.75862069 -15.75862069 4.75862069 -12.5 1.5 C-8.16148209 -0.35936482 -4.64106706 -1.12614127 0 0 Z " fill="#8BC8D9" transform="translate(42,74)"/>
<path d="M0 0 C2.625 1.75 2.625 1.75 4 4 C4.08439429 7.37577146 3.24276626 8.70058827 1.125 11.3125 C-3.42020691 13.76691173 -7.93154317 13.83844815 -13 13 C-15.33984375 11.47265625 -15.33984375 11.47265625 -17 10 C-16.73212125 6.07111171 -16.47562903 4.45123779 -13.5625 1.6875 C-8.79070635 -1.4549007 -5.51744192 -1.2619681 0 0 Z " fill="#DFE3DC" transform="translate(55,46)"/>
<path d="M0 0 C2.875 1.5625 2.875 1.5625 5 4 C5.51697805 7.25696173 5.77678369 8.93568008 5 12 C2.6875 14.75 2.6875 14.75 0 17 C-0.495 17.763125 -0.99 18.52625 -1.5 19.3125 C-3 21 -3 21 -5.6875 21.25 C-6.450625 21.1675 -7.21375 21.085 -8 21 C-7.71872692 17.06217694 -7.04814187 14.76588026 -4.4375 11.875 C-1.5688765 9.11969895 -1.5688765 9.11969895 -2 5 C-4.99152582 5.77479736 -4.99152582 5.77479736 -8 7 C-8.33 7.99 -8.66 8.98 -9 10 C-10.98 10 -12.96 10 -15 10 C-14.58565093 5.16592748 -12.62206046 3.10462326 -9 0 C-5.39965901 -1.20011366 -3.65462165 -0.95020163 0 0 Z " fill="#8BB7BE" transform="translate(81,91)"/>
<path d="M0 0 C2.95573172 1.33779733 3.88304927 2.3681153 6 5 C6.0625 8.1875 6.0625 8.1875 5 11 C0.53560345 13.97626437 -3.76653505 13.61120759 -9 13 C-12.1875 11.375 -12.1875 11.375 -14 9 C-14.5625 5.9375 -14.5625 5.9375 -14 3 C-9.83483515 -0.97712129 -5.46618026 -0.90959985 0 0 Z " fill="#DDE2D8" transform="translate(89,46)"/>
<path d="M0 0 C1.175625 0.391875 2.35125 0.78375 3.5625 1.1875 C3.8925 2.1775 4.2225 3.1675 4.5625 4.1875 C3.5725 5.6725 3.5725 5.6725 2.5625 7.1875 C1.9025 7.1875 1.2425 7.1875 0.5625 7.1875 C0.294375 6.548125 0.02625 5.90875 -0.25 5.25 C-1.32417752 2.85618314 -1.32417752 2.85618314 -4.4375 2.1875 C-4.416875 3.321875 -4.39625 4.45625 -4.375 5.625 C-4.4375 9.1875 -4.4375 9.1875 -5.4375 10.1875 C-11.50031442 10.58932396 -17.44420719 10.07539523 -23.4375 9.1875 C-22.09065993 5.14697978 -19.98902523 4.41590799 -16.4375 2.1875 C-15.81875 1.61 -15.2 1.0325 -14.5625 0.4375 C-10.15308537 -2.15627331 -4.79804721 -1.01646243 0 0 Z " fill="#7AB7C6" transform="translate(74.4375,16.8125)"/>
<path d="M0 0 C2.875 1 2.875 1 5 3 C6.06505753 5.73364767 6.40365181 8.08915875 6 11 C3.6875 13.875 3.6875 13.875 1 16 C-1.35953094 18.35953094 -1.49141413 19.77895617 -2 23 C-2.99 23 -3.98 23 -5 23 C-5.31563182 17.73946963 -4.66590937 14.55426184 -2 10 C-1.34 10 -0.68 10 0 10 C-0.33 8.68 -0.66 7.36 -1 6 C-3.31 6 -5.62 6 -8 6 C-8.33 6.99 -8.66 7.98 -9 9 C-10.32 9 -11.64 9 -13 9 C-12.71897086 5.62765029 -12.19628348 4.21360261 -9.875 1.6875 C-6.2426172 -0.44455077 -4.15582055 -0.51947757 0 0 Z " fill="#84BECB" transform="translate(113,76)"/>
<path d="M0 0 C2.1305905 0.98920273 3.92306586 1.93556982 5.73046875 3.44921875 C9.44914302 5.99020616 13.69668928 6.76413783 18.00390625 7.9375 C20.89639465 8.9632586 22.1995303 9.57512498 24 12 C24.33 12.99 24.66 13.98 25 15 C25.66 14.67 26.32 14.34 27 14 C25.79618552 16.49361571 24.54571278 18.68143083 23 21 C22.61500109 22.65549531 22.27206865 24.3222433 22 26 C23.32 26 24.64 26 26 26 C26.66 25.34 27.32 24.68 28 24 C28 25.32 28 26.64 28 28 C28.99 28.33 29.98 28.66 31 29 C28 29 25 29 22 29 C22.2475 30.485 22.2475 30.485 22.5 32 C23.06337994 36.45874977 23.11298053 40.88773004 23.125 45.375 C23.12951172 46.08914062 23.13402344 46.80328125 23.13867188 47.5390625 C23.1237479 52.7525042 23.1237479 52.7525042 22 55 C21.34 54.67 20.68 54.34 20 54 C20.165 53.38125 20.33 52.7625 20.5 52.125 C21.65238594 44.92258786 20.99794156 38.33765942 19.45703125 31.25390625 C18.30188037 25.55713653 19.01509701 22.85046736 22 18 C22.58402133 15.41417872 22.58402133 15.41417872 22 13 C18.86431156 10.03767895 15.68437721 9.23107354 11.5625 8.1875 C5.79718737 6.52268501 3.12736054 5.09643939 0 0 Z " fill="#B18F4B" transform="translate(72,57)"/>
<path d="M0 0 C0.33 0 0.66 0 1 0 C0.25 6.625 0.25 6.625 -2 10 C-2.0611958 12.84631883 -2.0611958 12.84631883 -1.6875 15.9375 C-1.58824219 16.97777344 -1.48898438 18.01804687 -1.38671875 19.08984375 C-1.07439 21.87976165 -1.07439 21.87976165 -0.46875 24.07421875 C0.98728409 30.05609212 0.37115563 36.36850539 -2 42 C-2.66 41.67 -3.32 41.34 -4 41 C-3.97679688 40.34773438 -3.95359375 39.69546875 -3.9296875 39.0234375 C-3.77967563 33.48050533 -3.77967563 33.48050533 -5 28.125 C-8.03969347 18.62595792 -5.69381819 11.0628081 -1.3125 2.421875 C-0.879375 1.62265625 -0.44625 0.8234375 0 0 Z " fill="#BDAD95" transform="translate(94,70)"/>
<path d="M0 0 C1.9375 1.375 1.9375 1.375 3 3 C3 3.99 3 4.98 3 6 C-0.98196457 7.05404945 -3.98195309 6.84098656 -8 6 C-8.33 6.99 -8.66 7.98 -9 9 C-11.475 8.01 -11.475 8.01 -14 7 C-13.07739356 3.89668743 -12.29502729 2.25288053 -9.8125 0.125 C-6.10049414 -1.35980235 -3.83713132 -0.99481182 0 0 Z " fill="#81BCCB" transform="translate(111,18)"/>
<path d="M0 0 C1.875 0.25 1.875 0.25 4 1 C5.71012268 3.28016358 6 4.65104302 6 7.5 C5 10 5 10 2 11.875 C-1.3844854 13.7742663 -1.3844854 13.7742663 -1.875 17.75 C-1.91625 18.8225 -1.9575 19.895 -2 21 C-2.99 21 -3.98 21 -5 21 C-5.6380789 12.864494 -5.6380789 12.864494 -3.0625 9.375 C-2.381875 8.59125 -1.70125 7.8075 -1 7 C-0.19777849 3.310252 -0.19777849 3.310252 0 0 Z " fill="#83AEB1" transform="translate(70,19)"/>
<path d="M0 0 C2.62397304 1.77361141 3.34988467 3.12560556 5 6 C5.4375 9.25 5.4375 9.25 5 12 C4.34 12.66 3.68 13.32 3 14 C2.96261719 13.38511719 2.92523438 12.77023438 2.88671875 12.13671875 C2.78810547 10.92435547 2.78810547 10.92435547 2.6875 9.6875 C2.62949219 8.88699219 2.57148437 8.08648437 2.51171875 7.26171875 C1.90292799 4.57095651 1.22512381 3.60703387 -1 2 C-4.62535976 1.7496423 -4.62535976 1.7496423 -8 2 C-8 2.66 -8 3.32 -8 4 C-6.68 4.33 -5.36 4.66 -4 5 C-5.423125 5.3403125 -5.423125 5.3403125 -6.875 5.6875 C-10.19323388 6.69083714 -10.19323388 6.69083714 -11.375 9.625 C-11.58125 10.40875 -11.7875 11.1925 -12 12 C-13.32 12 -14.64 12 -16 12 C-15.75862069 4.75862069 -15.75862069 4.75862069 -12.5 1.5 C-8.16148209 -0.35936482 -4.64106706 -1.12614127 0 0 Z " fill="#8FBBBF" transform="translate(42,74)"/>
<path d="M0 0 C30.69 0 61.38 0 93 0 C93 0.33 93 0.66 93 1 C62.31 1 31.62 1 0 1 C0 0.67 0 0.34 0 0 Z " fill="#CCB57D" transform="translate(20,113)"/>
<path d="M0 0 C-0.66 1.32 -1.32 2.64 -2 4 C-1.01 4.33 -0.02 4.66 1 5 C0.0409375 5.37125 0.0409375 5.37125 -0.9375 5.75 C-3.18741541 6.81562433 -3.18741541 6.81562433 -3.75 9.125 C-3.8325 9.74375 -3.915 10.3625 -4 11 C-5.98 11.33 -7.96 11.66 -10 12 C-11.27514492 8.17456525 -10.52740413 6.66576992 -9 3 C-6.58369172 -0.62446243 -4.13877621 -0.27591841 0 0 Z " fill="#65AECF" transform="translate(16,21)"/>
<path d="M0 0 C0 0.33 0 0.66 0 1 C-2.31 1.66 -4.62 2.32 -7 3 C-5.35 3.33 -3.7 3.66 -2 4 C-2 4.33 -2 4.66 -2 5 C-2.969375 5.268125 -3.93875 5.53625 -4.9375 5.8125 C-5.948125 6.204375 -6.95875 6.59625 -8 7 C-8.33 7.99 -8.66 8.98 -9 10 C-10.98 10 -12.96 10 -15 10 C-14.58565093 5.16592748 -12.62206046 3.10462326 -9 0 C-5.52176885 -1.15941038 -3.54104422 -0.70820884 0 0 Z " fill="#8FB4B8" transform="translate(81,91)"/>
<path d="M0 0 C2.9375 1.0625 2.9375 1.0625 5 3 C5.3125 6.6875 5.3125 6.6875 5 10 C3.68 10 2.36 10 1 10 C1 8.35 1 6.7 1 5 C-2.3 4.67 -5.6 4.34 -9 4 C-9 3.01 -9 2.02 -9 1 C-5.93570224 -0.53214888 -3.3834358 -0.22938548 0 0 Z " fill="#82BFCD" transform="translate(113,76)"/>
<path d="M0 0 C0.2475 0.598125 0.495 1.19625 0.75 1.8125 C2.23050447 4.40338283 3.45195805 5.45187813 6 7 C8.71485881 7.39834803 8.71485881 7.39834803 11.5625 7.25 C12.51253906 7.23453125 13.46257812 7.2190625 14.44140625 7.203125 C17.11957113 7.09356342 17.11957113 7.09356342 20 6 C19.67 6.99 19.34 7.98 19 9 C16.39635591 9.24867947 13.79410106 9.47457902 11.1875 9.6875 C10.44951172 9.76033203 9.71152344 9.83316406 8.95117188 9.90820312 C6.79296875 10.07421875 6.79296875 10.07421875 3 10 C1.34375 8.53125 1.34375 8.53125 0 7 C-2.74243563 6.63729516 -2.74243563 6.63729516 -5.6875 6.8125 C-6.68136719 6.83957031 -7.67523438 6.86664063 -8.69921875 6.89453125 C-9.83810547 6.94673828 -9.83810547 6.94673828 -11 7 C-11.33 6.34 -11.66 5.68 -12 5 C-11.30132812 4.97421875 -10.60265625 4.9484375 -9.8828125 4.921875 C-8.97273438 4.86515625 -8.06265625 4.8084375 -7.125 4.75 C-6.22007813 4.70359375 -5.31515625 4.6571875 -4.3828125 4.609375 C-1.82889456 4.24388852 -1.82889456 4.24388852 -0.6796875 1.953125 C-0.34324219 0.98632812 -0.34324219 0.98632812 0 0 Z " fill="#CBA760" transform="translate(74,51)"/>
<path d="M0 0 C0.66 0.33 1.32 0.66 2 1 C1.34 3.97 0.68 6.94 0 10 C0.99 10 1.98 10 3 10 C3 12.97 3 15.94 3 19 C1.35 18.67 -0.3 18.34 -2 18 C-1.7525 17.154375 -1.505 16.30875 -1.25 15.4375 C-0.90845254 10.74122249 -2.56422729 8.95813066 -5 5 C-4.67 4.34 -4.34 3.68 -4 3 C-3.34 3.33 -2.68 3.66 -2 4 C-1.34 2.68 -0.68 1.36 0 0 Z " fill="#9A8A4E" transform="translate(108,89)"/>
<path d="M0 0 C0 0.66 0 1.32 0 2 C-1.051875 2.391875 -2.10375 2.78375 -3.1875 3.1875 C-6.92808883 4.77762885 -9.27567942 6.9643285 -12 10 C-12.66 10.66 -13.32 11.32 -14 12 C-14.6425235 14.06874034 -14.6425235 14.06874034 -15 16 C-14.01 16 -13.02 16 -12 16 C-12 19.3 -12 22.6 -12 26 C-12.33 26 -12.66 26 -13 26 C-13.33 23.36 -13.66 20.72 -14 18 C-14.99 18.66 -15.98 19.32 -17 20 C-17 18.68 -17 17.36 -17 16 C-18.32 16.33 -19.64 16.66 -21 17 C-20.61328125 16.55269531 -20.2265625 16.10539062 -19.828125 15.64453125 C-19.30734375 15.03996094 -18.7865625 14.43539062 -18.25 13.8125 C-17.42048828 12.8534375 -17.42048828 12.8534375 -16.57421875 11.875 C-15.34018935 10.40518831 -14.18482777 8.86927723 -13.0625 7.3125 C-9.95976715 3.83367832 -4.79602384 0 0 0 Z " fill="#A08E51" transform="translate(50,30)"/>
<path d="M0 0 C1.4540625 0.0309375 1.4540625 0.0309375 2.9375 0.0625 C4.08921123 4.09348931 3.94106005 6.35591391 1.9375 10.0625 C0.9475 10.7225 -0.0425 11.3825 -1.0625 12.0625 C-0.753125 11.464375 -0.44375 10.86625 -0.125 10.25 C1.03959704 7.97293228 1.03959704 7.97293228 1.9375 5.0625 C-1.99325644 5.63702746 -1.99325644 5.63702746 -5.0625 8.0625 C-7.1875 7.6875 -7.1875 7.6875 -9.0625 7.0625 C-8.0725 6.7325 -7.0825 6.4025 -6.0625 6.0625 C-4.90728498 3.59119082 -4.90728498 3.59119082 -4.0625 1.0625 C-3.0625 0.0625 -3.0625 0.0625 0 0 Z " fill="#AB9A5D" transform="translate(36.0625,78.9375)"/>
<path d="M0 0 C2.97 0.495 2.97 0.495 6 1 C6.042721 2.66611905 6.04063832 4.33382885 6 6 C5 7 5 7 2.71484375 7.09765625 C1.34005859 7.08025391 1.34005859 7.08025391 -0.0625 7.0625 C-0.98160156 7.05347656 -1.90070312 7.04445313 -2.84765625 7.03515625 C-3.55792969 7.02355469 -4.26820312 7.01195312 -5 7 C-5 6.34 -5 5.68 -5 5 C-4.34 5 -3.68 5 -3 5 C-3 4.01 -3 3.02 -3 2 C-2.01 2 -1.02 2 0 2 C0 1.34 0 0.68 0 0 Z " fill="#353E37" transform="translate(64,20)"/>
<path d="M0 0 C0 3 0 3 -1.4375 4.875 C-3.2010399 7.27341427 -3.59478146 9.08242648 -4 12 C-5.65 12 -7.3 12 -9 12 C-9.08096803 10.54257537 -9.13917774 9.08387193 -9.1875 7.625 C-9.22230469 6.81289062 -9.25710937 6.00078125 -9.29296875 5.1640625 C-9.19628906 4.44992188 -9.09960938 3.73578125 -9 3 C-8.01 2.34 -7.02 1.68 -6 1 C-6 2.65 -6 4.3 -6 6 C-5.34 6 -4.68 6 -4 6 C-3.71125 5.38125 -3.4225 4.7625 -3.125 4.125 C-2 2 -2 2 0 0 Z " fill="#8EB8BD" transform="translate(44,88)"/>
<path d="M0 0 C0.53625 0.28875 1.0725 0.5775 1.625 0.875 C4.35280484 2.16711808 7.12612718 3.08558592 10 4 C9.814375 4.86625 9.62875 5.7325 9.4375 6.625 C8.99332067 10.05152628 9.28045508 12.64212371 10 16 C7.64046906 13.64046906 7.50858587 12.22104383 7 9 C6.01 8.67 5.02 8.34 4 8 C2.9375 5.625 2.9375 5.625 2 3 C1.34 2.01 0.68 1.02 0 0 Z " fill="#8A8462" transform="translate(93,36)"/>
<path d="M0 0 C0.33 0.66 0.66 1.32 1 2 C4.63 2 8.26 2 12 2 C11.75 5.375 11.75 5.375 11 9 C8.9375 10.4375 8.9375 10.4375 7 11 C7.33 10.01 7.66 9.02 8 8 C8.66 8 9.32 8 10 8 C9.67 6.68 9.34 5.36 9 4 C6.69 4 4.38 4 2 4 C1.67 4.99 1.34 5.98 1 7 C-0.32 7 -1.64 7 -3 7 C-2.25 2.25 -2.25 2.25 0 0 Z " fill="#89B6B6" transform="translate(103,78)"/>
<path d="M0 0 C1.98 1.65 3.96 3.3 6 5 C5.01 5.495 5.01 5.495 4 6 C3.34 5.67 2.68 5.34 2 5 C2.061875 6.27875 2.12375 7.5575 2.1875 8.875 C2.29296875 11.0546875 2.29296875 11.0546875 2 13 C1.01 13.66 0.02 14.32 -1 15 C-0.835 13.9275 -0.67 12.855 -0.5 11.75 C0.08810915 7.96971248 0.08810915 7.96971248 0 4 C-2.475 3.01 -2.475 3.01 -5 2 C-4.360625 1.855625 -3.72125 1.71125 -3.0625 1.5625 C-1.02454854 1.18992819 -1.02454854 1.18992819 0 0 Z " fill="#AB9859" transform="translate(118,75)"/>
<path d="M0 0 C0 0.33 0 0.66 0 1 C-1.60875 1.0928125 -1.60875 1.0928125 -3.25 1.1875 C-7.13531961 1.66145959 -7.13531961 1.66145959 -9.4375 4.5625 C-9.953125 5.366875 -10.46875 6.17125 -11 7 C-10.01 7.33 -9.02 7.66 -8 8 C-8.99 8.33 -9.98 8.66 -11 9 C-11.99 8.34 -12.98 7.68 -14 7 C-13.07739356 3.89668743 -12.29502729 2.25288053 -9.8125 0.125 C-6.18743997 -1.32502401 -3.76303616 -0.81163525 0 0 Z " fill="#7B9AA3" transform="translate(111,18)"/>
<path d="M0 0 C0.33 0.66 0.66 1.32 1 2 C-3.455 2.495 -3.455 2.495 -8 3 C-8 3.66 -8 4.32 -8 5 C-8.99 5.33 -9.98 5.66 -11 6 C-11 8.31 -11 10.62 -11 13 C-11.99 12.34 -12.98 11.68 -14 11 C-13.73212125 7.07111171 -13.47562903 5.45123779 -10.5625 2.6875 C-6.6932154 0.13943453 -4.63108966 -0.10067586 0 0 Z " fill="#DED9C9" transform="translate(52,45)"/>
<path d="M0 0 C1.98 0 3.96 0 6 0 C6 1.65 6 3.3 6 5 C3.69 5.33 1.38 5.66 -1 6 C-0.67 4.02 -0.34 2.04 0 0 Z " fill="#B0AB79" transform="translate(66,42)"/>
<path d="M0 0 C3.23009861 -0.41235301 5.15971325 -0.58820073 7.875 1.3125 C9 3 9 3 9 6 C8.01 6.33 7.02 6.66 6 7 C5.34 6.01 4.68 5.02 4 4 C0.93443402 3.26656572 0.93443402 3.26656572 -2 3 C-1.34 2.01 -0.68 1.02 0 0 Z " fill="#8BC6D6" transform="translate(75,92)"/>
<path d="M0 0 C1.65 0.33 3.3 0.66 5 1 C5.33 1.99 5.66 2.98 6 4 C5.01 5.485 5.01 5.485 4 7 C1.525 6.01 1.525 6.01 -1 5 C-0.67 3.35 -0.34 1.7 0 0 Z " fill="#96B7BC" transform="translate(15,44)"/>
<path d="M0 0 C0.33 0 0.66 0 1 0 C1 1.65 1 3.3 1 5 C0.01 5.495 0.01 5.495 -1 6 C-0.67 4.02 -0.34 2.04 0 0 Z M-3 7 C-2.34 7.66 -1.68 8.32 -1 9 C-1.99 9.33 -2.98 9.66 -4 10 C-4 10.66 -4 11.32 -4 12 C-6.70879335 13.35439668 -9.00933268 13.06501451 -12 13 C-12 12.34 -12 11.68 -12 11 C-9.03 9.68 -6.06 8.36 -3 7 Z " fill="#DFB14A" transform="translate(60,50)"/>
<path d="M0 0 C1.2065625 0.0309375 1.2065625 0.0309375 2.4375 0.0625 C1.4475 1.5475 1.4475 1.5475 0.4375 3.0625 C0.04362212 5.38637947 -0.29736085 7.72043749 -0.5625 10.0625 C-1.5525 10.0625 -2.5425 10.0625 -3.5625 10.0625 C-3.58939216 8.58343108 -3.60884621 7.10422517 -3.625 5.625 C-3.63660156 4.80128906 -3.64820312 3.97757813 -3.66015625 3.12890625 C-3.51340586 0.02366796 -3.12550237 0.07623177 0 0 Z " fill="#8EBDBF" transform="translate(68.5625,29.9375)"/>
<path d="M0 0 C1.65 0.33 3.3 0.66 5 1 C4.67 2.65 4.34 4.3 4 6 C2.35 6 0.7 6 -1 6 C-0.67 4.02 -0.34 2.04 0 0 Z " fill="#95B5AE" transform="translate(36,102)"/>
<path d="M0 0 C1.32 0.33 2.64 0.66 4 1 C4.25 3.3125 4.25 3.3125 4 6 C2 7.8125 2 7.8125 0 9 C0 6.03 0 3.06 0 0 Z " fill="#83C0D1" transform="translate(70,19)"/>
<path d="M0 0 C0.25 3.3125 0.25 3.3125 0 7 C-2 8.9375 -2 8.9375 -4 10 C-3.690625 9.401875 -3.38125 8.80375 -3.0625 8.1875 C-1.89790296 5.91043228 -1.89790296 5.91043228 -1 3 C-2.98 3.33 -4.96 3.66 -7 4 C-7 3.01 -7 2.02 -7 1 C-4.53721199 -0.231394 -2.7204945 -0.07159196 0 0 Z " fill="#BDA152" transform="translate(39,81)"/>
<path d="M0 0 C0.66 0.33 1.32 0.66 2 1 C1.34 1.66 0.68 2.32 0 3 C-0.45811675 4.97235333 -0.45811675 4.97235333 -0.625 7.125 C-0.810625 9.043125 -0.810625 9.043125 -1 11 C-1.99 11 -2.98 11 -4 11 C-4 11.66 -4 12.32 -4 13 C-4.66 13 -5.32 13 -6 13 C-6 11.68 -6 10.36 -6 9 C-4.68 9 -3.36 9 -2 9 C-2.04125 7.88625 -2.0825 6.7725 -2.125 5.625 C-2 2 -2 2 0 0 Z " fill="#B8A157" transform="translate(70,31)"/>
<path d="M0 0 C2.475 0.495 2.475 0.495 5 1 C5.33 1.99 5.66 2.98 6 4 C5.01 5.485 5.01 5.485 4 7 C3.34 7 2.68 7 2 7 C0.5393715 4.35261084 0 3.10551666 0 0 Z " fill="#284547" transform="translate(73,17)"/>
<path d="M0 0 C7.50769231 -0.36923077 7.50769231 -0.36923077 10 1.5 C10.495 2.2425 10.495 2.2425 11 3 C10.01 3 9.02 3 8 3 C8 3.66 8 4.32 8 5 C5.03 4.505 5.03 4.505 2 4 C3.32 3.67 4.64 3.34 6 3 C6 2.34 6 1.68 6 1 C4.02 1 2.04 1 0 1 C0 0.67 0 0.34 0 0 Z " fill="#6EACC1" transform="translate(62,16)"/>
<path d="M0 0 C0.33 0.66 0.66 1.32 1 2 C1.66 2.33 2.32 2.66 3 3 C2.34 4.65 1.68 6.3 1 8 C0.01 8 -0.98 8 -2 8 C-2.125 5.125 -2.125 5.125 -2 2 C-1.34 1.34 -0.68 0.68 0 0 Z " fill="#8BC4D6" transform="translate(17,34)"/>
<path d="M0 0 C0.66 0.33 1.32 0.66 2 1 C1.67 2.65 1.34 4.3 1 6 C-1.31 6 -3.62 6 -6 6 C-5.34 4.68 -4.68 3.36 -4 2 C-3.01 2.66 -2.02 3.32 -1 4 C-0.67 2.68 -0.34 1.36 0 0 Z " fill="#C5A051" transform="translate(38,68)"/>
<path d="M0 0 C0.185625 0.9590625 0.185625 0.9590625 0.375 1.9375 C0.684375 2.9584375 0.684375 2.9584375 1 4 C1.66 4.33 2.32 4.66 3 5 C2.34 5 1.68 5 1 5 C1 5.66 1 6.32 1 7 C-0.32 7 -1.64 7 -3 7 C-2.38722388 4.03824877 -1.74627478 2.61941217 0 0 Z " fill="#8FB2B7" transform="translate(103,32)"/>
<path d="M0 0 C0 1.32 0 2.64 0 4 C-1.98 4 -3.96 4 -6 4 C-5.67 3.01 -5.34 2.02 -5 1 C-3 0 -3 0 0 0 Z " fill="#354C4B" transform="translate(57,22)"/>
<path d="M0 0 C0.33 0 0.66 0 1 0 C1 3.3 1 6.6 1 10 C0.01 10 -0.98 10 -2 10 C-1.34 6.7 -0.68 3.4 0 0 Z " fill="#A69F62" transform="translate(21,102)"/>
<path d="M0 0 C0.99 0 1.98 0 3 0 C3 1.65 3 3.3 3 5 C1.68 4.67 0.36 4.34 -1 4 C-0.67 2.68 -0.34 1.36 0 0 Z " fill="#88BBC3" transform="translate(108,103)"/>
<path d="M0 0 C1.485 0.99 1.485 0.99 3 2 C2.625 4.9375 2.625 4.9375 2 8 C1.01 8.495 1.01 8.495 0 9 C0 6.03 0 3.06 0 0 Z " fill="#DFDCCA" transform="translate(92,49)"/>
<path d="M0 0 C0.99 0.33 1.98 0.66 3 1 C1.625 2.5 1.625 2.5 0 4 C-0.66 4 -1.32 4 -2 4 C-2 4.66 -2 5.32 -2 6 C-2.66 6 -3.32 6 -4 6 C-2.84826645 3.53199953 -1.95216435 1.95216435 0 0 Z " fill="#7FC2D9" transform="translate(104,19)"/>
<path d="M0 0 C2.97 0 5.94 0 9 0 C9 0.33 9 0.66 9 1 C6.03 1 3.06 1 0 1 C0 0.67 0 0.34 0 0 Z " fill="#61ADCE" transform="translate(11,19)"/>
<path d="M0 0 C1.65 0 3.3 0 5 0 C4.67 0.99 4.34 1.98 4 3 C4 2.34 4 1.68 4 1 C2.68 0.67 1.36 0.34 0 0 Z " fill="#7EAEB6" transform="translate(104,25)"/>
<path d="M0 0 C2.31 0 4.62 0 7 0 C7 0.33 7 0.66 7 1 C4.69 1 2.38 1 0 1 C0 0.67 0 0.34 0 0 Z " fill="#7ABACF" transform="translate(63,14)"/>
<path d="M0 0 C1 4 1 4 1 4 Z " fill="#C6BB69" transform="translate(18,106)"/>
<path d="M0 0 C4 1 4 1 4 1 Z " fill="#BE923F" transform="translate(12,102)"/>
<path d="M0 0 C1 4 1 4 1 4 Z " fill="#AA7F31" transform="translate(104,49)"/>
<path d="M0 0 C0.66 0.33 1.32 0.66 2 1 C1.01 1 0.02 1 -1 1 C-0.67 0.67 -0.34 0.34 0 0 Z " fill="#92956F" transform="translate(21,49)"/>
<path d="M0 0 C1 4 1 4 1 4 Z " fill="#638B8B" transform="translate(11,38)"/>
<path d="M0 0 C0 3 0 3 0 3 Z " fill="#999777" transform="translate(98,36)"/>
<path d="M0 0 C4 1 4 1 4 1 Z " fill="#76B3CF" transform="translate(6,34)"/>
<path d="M0 0 C4 1 4 1 4 1 Z " fill="#7BA7AF" transform="translate(104,15)"/>
<path d="M0 0 C3 1 3 1 3 1 Z " fill="#9B7027" transform="translate(114,111)"/>
<path d="" fill="#956B28" transform="translate(0,0)"/>
<path d="" fill="#C09048" transform="translate(0,0)"/>
<path d="" fill="#B0C8CA" transform="translate(0,0)"/>
<path d="" fill="#739AAA" transform="translate(0,0)"/>
<path d="M0 0 C3 1 3 1 3 1 Z " fill="#7CBAC0" transform="translate(106,37)"/>
<path d="" fill="#83AEB7" transform="translate(0,0)"/>
<path d="M0 0 C3 1 3 1 3 1 Z " fill="#BB993A" transform="translate(79,26)"/>
<path d="" fill="#88C3C4" transform="translate(0,0)"/>
<path d="M0 0 C0.66 0.66 1.32 1.32 2 2 C1.34 2 0.68 2 0 2 C0 1.34 0 0.68 0 0 Z " fill="#4E6556" transform="translate(77,24)"/>
<path d="M0 0 C2 1 2 1 2 1 Z " fill="#9E7227" transform="translate(118,110)"/>
<path d="M0 0 C2 1 2 1 2 1 Z " fill="#A36C22" transform="translate(120,109)"/>
<path d="" fill="#C2B362" transform="translate(0,0)"/>
<path d="" fill="#AAA25A" transform="translate(0,0)"/>
<path d="" fill="#CE9F4A" transform="translate(0,0)"/>
<path d="" fill="#9C8A51" transform="translate(0,0)"/>
<path d="" fill="#D7A53F" transform="translate(0,0)"/>
<path d="M0 0 C2 1 2 1 2 1 Z " fill="#A28349" transform="translate(11,57)"/>
<path d="" fill="#C28C3D" transform="translate(0,0)"/>
<path d="M0 0 C2 1 2 1 2 1 Z " fill="#969662" transform="translate(15,54)"/>
<path d="" fill="#977629" transform="translate(0,0)"/>
<path d="" fill="#767B7E" transform="translate(0,0)"/>
<path d="" fill="#A79C4B" transform="translate(0,0)"/>
<path d="" fill="#7C9DA8" transform="translate(0,0)"/>
<path d="M0 0 C2 1 2 1 2 1 Z " fill="#C18F43" transform="translate(93,34)"/>
<path d="" fill="#7EA3AF" transform="translate(0,0)"/>
<path d="M0 0 C2 1 2 1 2 1 Z " fill="#C7A53E" transform="translate(89,31)"/>
<path d="" fill="#7DB8C9" transform="translate(0,0)"/>
<path d="" fill="#7AA8B7" transform="translate(0,0)"/>
<path d="M0 0 C2 1 2 1 2 1 Z " fill="#818057" transform="translate(43,30)"/>
<path d="" fill="#66AECD" transform="translate(0,0)"/>
<path d="M0 0 C2 1 2 1 2 1 Z " fill="#92BBBA" transform="translate(104,29)"/>
<path d="M0 0 C2 1 2 1 2 1 Z " fill="#D6BF4D" transform="translate(46,29)"/>
<path d="M0 0 C2 1 2 1 2 1 Z " fill="#90BEC7" transform="translate(106,28)"/>
<path d="M0 0 C2 1 2 1 2 1 Z " fill="#D4C76C" transform="translate(48,28)"/>
<path d="M0 0 C2 1 2 1 2 1 Z " fill="#8BA9B3" transform="translate(98,27)"/>
<path d="M0 0 C2 1 2 1 2 1 Z " fill="#AF9D4C" transform="translate(50,27)"/>
<path d="M0 0 C2 1 2 1 2 1 Z " fill="#ECFFFF" transform="translate(15,27)"/>
<path d="" fill="#1E77B2" transform="translate(0,0)"/>
<path d="" fill="#3A6069" transform="translate(0,0)"/>
<path d="" fill="#80B4BC" transform="translate(0,0)"/>
<path d="" fill="#89A1A2" transform="translate(0,0)"/>
<path d="" fill="#182522" transform="translate(0,0)"/>
<path d="M0 0 C2 1 2 1 2 1 Z " fill="#192D31" transform="translate(52,21)"/>
<path d="M0 0 C2 1 2 1 2 1 Z " fill="#3C5654" transform="translate(54,20)"/>
<path d="" fill="#1B3230" transform="translate(0,0)"/>
<path d="M0 0 C2 1 2 1 2 1 Z " fill="#85AEBD" transform="translate(109,16)"/>
<path d="M0 0 C2 1 2 1 2 1 Z " fill="#9CCBD6" transform="translate(102,16)"/>
<path d="M0 0 C2 1 2 1 2 1 Z " fill="#1A4051" transform="translate(74,15)"/>
<path d="M0 0 C2 1 2 1 2 1 Z " fill="#74B9CE" transform="translate(70,15)"/>
<path d="" fill="#9A6F34" transform="translate(0,0)"/>
<path d="" fill="#A97D1A" transform="translate(0,0)"/>
<path d="" fill="#BF8719" transform="translate(0,0)"/>
<path d="" fill="#AC783D" transform="translate(0,0)"/>
<path d="" fill="#A57C29" transform="translate(0,0)"/>
<path d="" fill="#907320" transform="translate(0,0)"/>
<path d="" fill="#A07B30" transform="translate(0,0)"/>
<path d="" fill="#837137" transform="translate(0,0)"/>
<path d="" fill="#99863E" transform="translate(0,0)"/>
<path d="" fill="#AA9436" transform="translate(0,0)"/>
<path d="" fill="#AA9841" transform="translate(0,0)"/>
<path d="" fill="#A09048" transform="translate(0,0)"/>
<path d="" fill="#A39251" transform="translate(0,0)"/>
<path d="" fill="#92894F" transform="translate(0,0)"/>
<path d="" fill="#B1A75D" transform="translate(0,0)"/>
<path d="" fill="#C78D3E" transform="translate(0,0)"/>
<path d="" fill="#E6A644" transform="translate(0,0)"/>
<path d="" fill="#AF812C" transform="translate(0,0)"/>
<path d="" fill="#CE9643" transform="translate(0,0)"/>
<path d="" fill="#AA732D" transform="translate(0,0)"/>
<path d="" fill="#AE7B2F" transform="translate(0,0)"/>
<path d="" fill="#B3812B" transform="translate(0,0)"/>
<path d="" fill="#B9882A" transform="translate(0,0)"/>
<path d="" fill="#BA8726" transform="translate(0,0)"/>
<path d="" fill="#AE7C1B" transform="translate(0,0)"/>
<path d="" fill="#FCDF5D" transform="translate(0,0)"/>
<path d="" fill="#C48F37" transform="translate(0,0)"/>
<path d="" fill="#938D59" transform="translate(0,0)"/>
<path d="" fill="#BB9137" transform="translate(0,0)"/>
<path d="" fill="#B48634" transform="translate(0,0)"/>
<path d="" fill="#AB8433" transform="translate(0,0)"/>
<path d="" fill="#928664" transform="translate(0,0)"/>
<path d="" fill="#8C6426" transform="translate(0,0)"/>
<path d="" fill="#93886B" transform="translate(0,0)"/>
<path d="" fill="#8D6725" transform="translate(0,0)"/>
<path d="" fill="#918561" transform="translate(0,0)"/>
<path d="" fill="#908867" transform="translate(0,0)"/>
<path d="" fill="#948A60" transform="translate(0,0)"/>
<path d="" fill="#8E8660" transform="translate(0,0)"/>
<path d="" fill="#8E835F" transform="translate(0,0)"/>
<path d="" fill="#908263" transform="translate(0,0)"/>
<path d="" fill="#938662" transform="translate(0,0)"/>
<path d="" fill="#9D8E56" transform="translate(0,0)"/>
<path d="" fill="#8B814D" transform="translate(0,0)"/>
<path d="" fill="#868F5D" transform="translate(0,0)"/>
<path d="" fill="#819071" transform="translate(0,0)"/>
<path d="" fill="#7A9382" transform="translate(0,0)"/>
<path d="" fill="#9DB3BC" transform="translate(0,0)"/>
<path d="" fill="#8CA6AE" transform="translate(0,0)"/>
<path d="" fill="#9EB8C1" transform="translate(0,0)"/>
<path d="" fill="#9E905B" transform="translate(0,0)"/>
<path d="" fill="#9B8B41" transform="translate(0,0)"/>
<path d="" fill="#AA9C64" transform="translate(0,0)"/>
<path d="" fill="#DCBA49" transform="translate(0,0)"/>
<path d="" fill="#A59E62" transform="translate(0,0)"/>
<path d="" fill="#8FADB4" transform="translate(0,0)"/>
<path d="" fill="#696F65" transform="translate(0,0)"/>
<path d="" fill="#857541" transform="translate(0,0)"/>
<path d="" fill="#CCDDDA" transform="translate(0,0)"/>
<path d="" fill="#7C6F44" transform="translate(0,0)"/>
<path d="" fill="#598289" transform="translate(0,0)"/>
<path d="" fill="#92814E" transform="translate(0,0)"/>
<path d="" fill="#A28F71" transform="translate(0,0)"/>
<path d="" fill="#88B8C3" transform="translate(0,0)"/>
<path d="" fill="#AD9455" transform="translate(0,0)"/>
<path d="" fill="#83B2BE" transform="translate(0,0)"/>
<path d="" fill="#70ABB9" transform="translate(0,0)"/>
<path d="" fill="#7DAFBC" transform="translate(0,0)"/>
<path d="" fill="#80B7C3" transform="translate(0,0)"/>
<path d="" fill="#A1752F" transform="translate(0,0)"/>
<path d="" fill="#7E7E6B" transform="translate(0,0)"/>
<path d="" fill="#85AEBE" transform="translate(0,0)"/>
<path d="" fill="#85ABBB" transform="translate(0,0)"/>
<path d="" fill="#A4C7C2" transform="translate(0,0)"/>
<path d="" fill="#9E6B27" transform="translate(0,0)"/>
<path d="" fill="#7A7D64" transform="translate(0,0)"/>
<path d="" fill="#80A7B8" transform="translate(0,0)"/>
<path d="" fill="#83B1B5" transform="translate(0,0)"/>
<path d="" fill="#858668" transform="translate(0,0)"/>
<path d="" fill="#729FA7" transform="translate(0,0)"/>
<path d="" fill="#729AA0" transform="translate(0,0)"/>
<path d="" fill="#86B0BA" transform="translate(0,0)"/>
<path d="" fill="#93ABAF" transform="translate(0,0)"/>
<path d="" fill="#C59F43" transform="translate(0,0)"/>
<path d="" fill="#8A8E70" transform="translate(0,0)"/>
<path d="" fill="#729EA9" transform="translate(0,0)"/>
<path d="" fill="#739AA4" transform="translate(0,0)"/>
<path d="" fill="#86D7F3" transform="translate(0,0)"/>
<path d="" fill="#84B2B5" transform="translate(0,0)"/>
<path d="" fill="#92B4B3" transform="translate(0,0)"/>
<path d="" fill="#AA8439" transform="translate(0,0)"/>
<path d="" fill="#84723B" transform="translate(0,0)"/>
<path d="" fill="#799BA7" transform="translate(0,0)"/>
<path d="" fill="#92B2AE" transform="translate(0,0)"/>
<path d="" fill="#817F55" transform="translate(0,0)"/>
<path d="" fill="#92ACB0" transform="translate(0,0)"/>
<path d="" fill="#BE8949" transform="translate(0,0)"/>
<path d="" fill="#9E671F" transform="translate(0,0)"/>
<path d="" fill="#9A6938" transform="translate(0,0)"/>
<path d="" fill="#76BFEB" transform="translate(0,0)"/>
<path d="" fill="#4687A4" transform="translate(0,0)"/>
<path d="" fill="#9CFDFF" transform="translate(0,0)"/>
<path d="" fill="#85B4BE" transform="translate(0,0)"/>
<path d="" fill="#996A2B" transform="translate(0,0)"/>
<path d="" fill="#85B2C1" transform="translate(0,0)"/>
<path d="" fill="#92A8B1" transform="translate(0,0)"/>
<path d="" fill="#68A2A5" transform="translate(0,0)"/>
<path d="" fill="#2474B9" transform="translate(0,0)"/>
<path d="" fill="#2A433B" transform="translate(0,0)"/>
<path d="" fill="#394F5A" transform="translate(0,0)"/>
<path d="" fill="#81ABBA" transform="translate(0,0)"/>
<path d="" fill="#2B80BB" transform="translate(0,0)"/>
<path d="" fill="#81BFC4" transform="translate(0,0)"/>
<path d="" fill="#94B8C0" transform="translate(0,0)"/>
<path d="" fill="#3D5A61" transform="translate(0,0)"/>
<path d="" fill="#AECADB" transform="translate(0,0)"/>
<path d="" fill="#2A7DBC" transform="translate(0,0)"/>
<path d="" fill="#81B3C1" transform="translate(0,0)"/>
<path d="" fill="#2579B2" transform="translate(0,0)"/>
<path d="" fill="#7CAAAB" transform="translate(0,0)"/>
<path d="" fill="#7F979D" transform="translate(0,0)"/>
<path d="" fill="#75BDC8" transform="translate(0,0)"/>
<path d="" fill="#15669E" transform="translate(0,0)"/>
<path d="" fill="#7BA8A9" transform="translate(0,0)"/>
<path d="" fill="#859FA6" transform="translate(0,0)"/>
<path d="" fill="#65949A" transform="translate(0,0)"/>
<path d="" fill="#B2E7FB" transform="translate(0,0)"/>
<path d="" fill="#849EA6" transform="translate(0,0)"/>
<path d="" fill="#77AEBD" transform="translate(0,0)"/>
<path d="" fill="#78B1BA" transform="translate(0,0)"/>
<path d="" fill="#849CA1" transform="translate(0,0)"/>
<path d="" fill="#1F454D" transform="translate(0,0)"/>
<path d="" fill="#71B5C8" transform="translate(0,0)"/>
<path d="" fill="#24494E" transform="translate(0,0)"/>
<path d="" fill="#7CC3CD" transform="translate(0,0)"/>
<path d="" fill="#70B3C8" transform="translate(0,0)"/>
<path d="" fill="#87BFD5" transform="translate(0,0)"/>
</svg>
